HIERARCHY
ROOT Hips
{
	OFFSET 0.000000 0.000000 0.000000
	CHANNELS 6 Xposition Yposition Zposition Zrotation Yrotation Xrotation 
	JOINT LHipJoint
	{
		OFFSET 0.000000 0.000000 0.000000
		CHANNELS 3 Zrotation Yrotation Xrotation
		JOINT LeftUpLeg
		{
			OFFSET 1.363060 -1.794630 0.839290
			CHANNELS 3 Zrotation Yrotation Xrotation
			JOINT LeftLeg
			{
				OFFSET 2.448110 -6.726130 0.000000
				CHANNELS 3 Zrotation Yrotation Xrotation
				JOINT LeftFoot
				{
					OFFSET 2.562200 -7.039590 0.000000
					CHANNELS 3 Zrotation Yrotation Xrotation
					JOINT LeftToeBase
					{
						OFFSET 0.157640 -0.433110 2.322550
						CHANNELS 3 Zrotation Yrotation Xrotation
						End Site
						{
							OFFSET 0.000000 0.000000 0.000000
						}
					}
				}
			}
		}
	}
	JOINT RHipJoint
	{
		OFFSET 0.000000 0.000000 0.000000
		CHANNELS 3 Zrotation Yrotation Xrotation
		JOINT RightUpLeg
		{
			OFFSET -1.305520 -1.794630 0.839290
			CHANNELS 3 Zrotation Yrotation Xrotation
			JOINT RightLeg
			{
				OFFSET -2.542530 -6.985550 0.000000
				CHANNELS 3 Zrotation Yrotation Xrotation
				JOINT RightFoot
				{
					OFFSET -2.568260 -7.056230 0.000000
					CHANNELS 3 Zrotation Yrotation Xrotation
					JOINT RightToeBase
					{
						OFFSET -0.164730 -0.452590 2.363150
						CHANNELS 3 Zrotation Yrotation Xrotation
						End Site
						{
							OFFSET 0.000000 0.000000 0.000000
						}
					}
				}
			}
		}
	}
	JOINT LowerBack
	{
		OFFSET 0.000000 0.000000 0.000000
		CHANNELS 3 Zrotation Yrotation Xrotation
		JOINT Spine
		{
			OFFSET 0.028270 2.035590 -0.193380
			CHANNELS 3 Zrotation Yrotation Xrotation
			JOINT Spine1
			{
				OFFSET 0.056720 2.048850 -0.042750
				CHANNELS 3 Zrotation Yrotation Xrotation
				JOINT Neck
				{
					OFFSET 0.000000 0.000000 0.000000
					CHANNELS 3 Zrotation Yrotation Xrotation
					JOINT Neck1
					{
						OFFSET -0.054170 1.746240 0.172020
						CHANNELS 3 Zrotation Yrotation Xrotation
						JOINT Head
						{
							OFFSET 0.104070 1.761360 -0.123970
							CHANNELS 3 Zrotation Yrotation Xrotation
							End Site
							{
								OFFSET 0.000000 0.000000 0.000000
							}
						}
					}
				}
				JOINT LeftShoulder
				{
					OFFSET 0.000000 0.000000 0.000000
					CHANNELS 3 Zrotation Yrotation Xrotation
					JOINT LeftArm
					{
						OFFSET 3.362410 1.200890 -0.311210
						CHANNELS 3 Zrotation Yrotation Xrotation
						JOINT LeftForeArm
						{
							OFFSET 4.983000 -0.000000 -0.000000
							CHANNELS 3 Zrotation Yrotation Xrotation
							JOINT LeftHand
							{
								OFFSET 3.483560 -0.000000 -0.000000
								CHANNELS 3 Zrotation Yrotation Xrotation
								JOINT LeftFingerBase
								{
									OFFSET 0.000000 0.000000 0.000000
									CHANNELS 3 Zrotation Yrotation Xrotation
									JOINT LeftHandIndex1
									{
										OFFSET 0.715260 -0.000000 -0.000000
										CHANNELS 3 Zrotation Yrotation Xrotation
										End Site
										{
											OFFSET 0.000000 0.000000 0.000000
										}
									}
								}
								JOINT LThumb
								{
									OFFSET 0.000000 0.000000 0.000000
									CHANNELS 3 Zrotation Yrotation Xrotation
									End Site
									{
										OFFSET 0.000000 0.000000 0.000000
									}
								}
							}
						}
					}
				}
				JOINT RightShoulder
				{
					OFFSET 0.000000 0.000000 0.000000
					CHANNELS 3 Zrotation Yrotation Xrotation
					JOINT RightArm
					{
						OFFSET -3.136600 1.374050 -0.404650
						CHANNELS 3 Zrotation Yrotation Xrotation
						JOINT RightForeArm
						{
							OFFSET -5.241900 -0.000000 -0.000000
							CHANNELS 3 Zrotation Yrotation Xrotation
							JOINT RightHand
							{
								OFFSET -3.444170 -0.000000 -0.000000
								CHANNELS 3 Zrotation Yrotation Xrotation
								JOINT RightFingerBase
								{
									OFFSET 0.000000 0.000000 0.000000
									CHANNELS 3 Zrotation Yrotation Xrotation
									JOINT RightHandIndex1
									{
										OFFSET -0.622530 -0.000000 -0.000000
										CHANNELS 3 Zrotation Yrotation Xrotation
										End Site
										{
											OFFSET 0.000000 0.000000 0.000000
										}
									}
								}
								JOINT RThumb
								{
									OFFSET 0.000000 0.000000 0.000000
									CHANNELS 3 Zrotation Yrotation Xrotation
									End Site
									{
										OFFSET 0.000000 0.000000 0.000000
									}
								}
							}
						}
					}
				}
			}
		}
	}
}
MOTION
Frames: 6
Frame Time: 0.016667
-0.049048 17.285573 0.270666 -0.350847 -0.108266 13.602190 -4.594826 20.516030 -0.886150 -22.221641 -13.397022 -23.211202 -1.412491 -2.565953 0.989585 -0.430796 3.320321 16.962478 0.000000 0.000000 0.000000 4.650927 -25.087665 10.387515 14.937513 13.136696 -17.691301 2.561682 -9.842346 31.973642 1.564835 6.054832 -21.287727 0.000000 0.000000 0.000000 0.050967 2.475771 1.238621 1.384044 1.647883 25.084631 0.629993 3.171230 -23.926334 6.405899 -1.124504 4.095737 -1.333252 -0.281578 5.291083 0.000000 0.000000 0.000000 -11.792568 13.893873 -5.016209 -66.754112 -16.951629 0.230580 -12.422428 25.122081 0.073841 -2.559470 -9.279969 0.036961 -2.560239 -9.280341 0.000000 0.000000 0.000000 0.000000 0.000000 0.000000 0.000000 6.267510 -11.537362 -1.394693 60.938990 21.130022 2.286548 21.617817 15.173638 -0.065409 -0.223381 5.974879 -0.032993 -0.233092 5.975662 0.000000 0.000000 0.000000 0.000000 0.000000 0.000000 0.000000 
-0.040015 17.351891 0.432016 -0.064976 -0.567334 13.884163 -5.267407 20.475837 -0.058552 -21.136488 -13.367540 -23.912453 -2.168259 -2.419332 0.573257 -0.445001 3.732233 17.182652 0.000000 0.000000 0.000000 5.535577 -24.253020 10.771003 13.176615 12.887349 -18.463430 2.750230 -9.917620 31.541601 1.471688 5.443894 -19.341662 0.000000 0.000000 0.000000 -0.121382 2.159972 0.189394 0.877697 1.319291 27.764564 0.694003 2.895206 -25.332797 6.286146 -1.122415 3.562648 -1.310315 -0.289587 5.399944 0.000000 0.000000 0.000000 -12.593272 13.198412 -5.330814 -66.256719 -17.008256 0.232078 -11.497254 27.254706 0.071552 -2.252807 -9.121330 0.035778 -2.252805 -9.121868 0.000000 0.000000 0.000000 0.000000 0.000000 0.000000 0.000000 7.221803 -10.930635 -1.871805 61.086156 21.935824 1.094895 21.784900 6.580217 -0.086851 -0.013061 6.773001 -0.043750 -0.024404 6.774060 0.000000 0.000000 0.000000 0.000000 0.000000 0.000000 0.000000 
-0.028769 17.420028 0.592774 0.199027 -1.031677 14.134903 -5.981716 20.391828 0.753871 -19.958517 -13.281034 -24.596668 -2.964129 -2.261976 0.125855 -0.444909 4.204782 17.485246 0.000000 0.000000 0.000000 6.390537 -23.424927 11.142080 11.481804 12.574441 -19.112829 2.921680 -9.954831 31.041209 1.374105 4.799034 -17.267078 0.000000 0.000000 0.000000 -0.261892 1.899147 -0.841238 0.237834 1.074113 30.339396 0.988954 2.656549 -26.581641 6.208082 -1.132450 3.067532 -1.388758 -0.299247 5.471571 0.000000 0.000000 0.000000 -13.534046 12.258080 -5.543193 -65.126120 -16.951452 0.017277 -11.950555 28.977247 0.050475 -1.835868 -8.914370 0.025165 -1.833728 -8.915164 -0.000000 0.000000 0.000000 0.000000 0.000000 0.000000 0.000000 8.505291 -10.082060 -2.310268 60.911998 22.603026 -0.007739 21.134685 -1.399329 -0.100534 0.197567 7.300535 -0.050593 0.185615 7.301792 0.000000 0.000000 0.000000 0.000000 0.000000 0.000000 0.000000 
-0.012195 17.443885 0.743195 0.553753 -0.407825 14.031468 -6.035467 20.233662 0.500152 -20.314631 -13.390809 -24.280633 -2.809340 -1.818879 1.829451 -0.518088 3.447299 15.974319 0.000000 0.000000 0.000000 6.855779 -23.007647 11.394111 10.238162 12.520908 -19.711008 3.074210 -10.687021 31.953710 1.699063 3.523162 -15.393210 0.000000 0.000000 0.000000 -0.287578 1.796768 -0.864046 0.151887 0.975452 30.070292 0.822834 2.563130 -26.392241 6.656729 -1.193835 3.116668 -1.603304 -0.296546 5.347726 0.000000 0.000000 0.000000 -13.094122 12.720369 -5.384111 -65.125705 -16.845445 0.207312 -12.697363 27.168680 0.042766 -1.819167 -8.682072 0.021313 -1.817024 -8.682814 0.000000 0.000000 0.000000 0.000000 0.000000 0.000000 0.000000 7.383755 -10.643153 -2.461947 62.081848 22.298191 -0.564541 21.424592 -6.522454 -0.111050 0.272423 7.969695 -0.055888 0.259166 7.971026 0.000000 0.000000 0.000000 0.000000 0.000000 0.000000 0.000000 
0.006031 17.468421 0.892214 0.878429 0.201955 13.923378 -6.108023 20.049298 0.246440 -20.598474 -13.487581 -23.983105 -2.649686 -1.370012 3.517748 -0.572299 2.777905 14.606835 0.000000 0.000000 0.000000 7.285074 -22.591943 11.627634 9.079681 12.422559 -20.200753 3.247608 -11.379049 32.751071 2.035874 2.204932 -13.413853 0.000000 0.000000 0.000000 -0.285855 1.713679 -0.875361 0.069767 0.900901 29.751224 0.681805 2.494572 -26.161503 7.077759 -1.254646 3.188595 -1.832131 -0.295297 5.218886 0.000000 0.000000 0.000000 -12.703325 13.132677 -5.190255 -65.069445 -16.719109 0.379948 -13.520696 25.261170 0.034673 -1.792988 -8.424747 0.017267 -1.790792 -8.425448 0.000000 0.000000 0.000000 0.000000 0.000000 0.000000 0.000000 6.372178 -11.148229 -2.578387 63.129795 21.951190 -1.085283 21.523795 -11.509093 -0.116653 0.330305 8.499271 -0.058708 0.316267 8.500618 0.000000 0.000000 0.000000 0.000000 0.000000 0.000000 0.000000 
0.027062 17.501909 1.046518 1.252289 0.316131 14.173588 -6.380557 20.006086 0.654680 -20.539549 -13.441693 -23.814401 -2.945590 -1.546032 3.047621 -0.597313 2.772693 14.597651 0.000000 0.000000 0.000000 7.928776 -21.847657 11.444900 8.056000 12.274786 -20.703700 2.604601 -11.782077 33.704197 2.220810 1.069395 -11.148765 0.000000 0.000000 0.000000 -0.378681 1.371851 -0.935589 -0.228942 0.605607 29.587862 0.499548 2.150767 -26.393917 7.227412 -1.224689 3.956979 -1.687661 -0.281956 5.075710 0.000000 0.000000 0.000000 -13.143753 13.525094 -5.278280 -64.167146 -16.165463 0.528054 -12.288320 25.822391 0.049991 -1.759297 -8.155730 0.024935 -1.757865 -8.156377 0.000000 0.000000 0.000000 0.000000 0.000000 0.000000 0.000000 6.476796 -11.884778 -2.722903 63.736336 21.710586 -0.978330 21.593494 -12.220218 -0.110060 0.476636 8.400640 -0.055371 0.463820 8.402004 -0.000000 0.000000 0.000000 0.000000 0.000000 0.000000 0.000000 
